<?xml version="1.0" standalone="no"?>
<!DOCTYPE svg PUBLIC "-//W3C//DTD SVG 20010904//EN"
 "http://www.w3.org/TR/2001/REC-SVG-20010904/DTD/svg10.dtd">
<svg version="1.0" xmlns="http://www.w3.org/2000/svg"
 width="1080.000000pt" height="1080.000000pt" viewBox="0 0 1080.000000 1080.000000"
 preserveAspectRatio="xMidYMid meet">

<g transform="translate(0.000000,1080.000000) scale(0.100000,-0.100000)"
fill="#000000" stroke="none">
<path d="M5109 10789 c-1521 -91 -2887 -777 -3854 -1933 -680 -815 -1098
-1796 -1219 -2865 -96 -844 19 -1732 329 -2536 513 -1330 1548 -2415 2855
-2993 1405 -621 3024 -611 4423 29 1024 468 1885 1255 2444 2234 809 1416 933
3123 338 4645 -516 1319 -1550 2397 -2847 2969 -769 339 -1651 500 -2469 450z
m796 -254 c1135 -123 2117 -557 2947 -1302 1263 -1133 1887 -2827 1662 -4513
-130 -980 -524 -1872 -1168 -2645 -127 -151 -468 -494 -607 -608 -340 -281
-609 -462 -959 -645 -1048 -547 -2254 -713 -3432 -472 -1007 206 -1941 722
-2661 1470 -572 593 -991 1306 -1222 2075 -217 723 -277 1443 -180 2180 146
1105 634 2112 1413 2916 731 755 1670 1267 2692 1468 229 45 515 82 730 95
141 8 651 -4 785 -19z"/>
<path d="M4437 7719 c-92 -22 -153 -69 -239 -183 -82 -109 -106 -134 -153
-159 -38 -21 -56 -22 -380 -28 -319 -5 -344 -7 -405 -28 -133 -46 -227 -131
-288 -259 l-37 -77 -3 -1075 c-2 -1057 -2 -1076 18 -1142 41 -134 154 -256
287 -309 57 -24 65 -24 464 -27 l407 -3 -118 118 c-208 209 -328 427 -392 713
-31 140 -33 436 -5 570 62 291 188 523 396 731 210 209 437 333 721 395 122
27 449 27 570 0 427 -93 781 -360 980 -738 127 -242 180 -501 159 -775 -29
-364 -180 -677 -453 -935 l-81 -78 782 0 c542 0 798 3 835 11 124 27 257 127
317 238 63 120 61 73 61 1203 0 709 -3 1043 -11 1080 -35 168 -170 313 -344
369 -31 10 -224 14 -817 18 l-776 6 -44 30 c-23 17 -84 82 -133 144 -99 123
-162 172 -247 190 -60 13 -1015 13 -1071 0z m859 -163 c28 -28 34 -42 34 -76
0 -47 -13 -77 -44 -102 -19 -16 -50 -18 -296 -18 -246 0 -277 2 -296 18 -31
25 -44 55 -44 102 0 34 6 48 34 76 l34 34 272 0 272 0 34 -34z m1674 -1106
c12 -8 16 -47 20 -220 l5 -211 145 0 145 0 3 208 c2 181 4 210 19 221 25 18
332 17 359 -2 18 -14 19 -32 19 -620 0 -482 -3 -608 -13 -618 -9 -9 -59 -14
-173 -16 -226 -5 -208 -25 -211 241 l-3 212 -145 0 -145 0 -5 -215 -5 -214
-25 -13 c-35 -18 -333 -14 -352 5 -10 10 -13 136 -13 618 0 588 1 606 19 620
15 11 57 14 180 14 89 0 168 -5 176 -10z"/>
<path d="M6540 7673 c-73 -24 -90 -55 -90 -163 l0 -80 373 2 372 3 0 81 c-1
61 -5 88 -19 108 -33 52 -61 56 -353 55 -147 0 -275 -3 -283 -6z"/>
<path d="M5055 6707 c-21 -55 -65 -94 -119 -104 -28 -6 -27 -6 19 -24 62 -24
81 -42 103 -102 l19 -50 6 32 c4 18 16 46 28 62 21 31 85 69 116 70 10 0 -2 6
-26 14 -56 18 -99 59 -114 111 l-12 42 -20 -51z"/>
<path d="M5622 6416 c-34 -180 -136 -287 -304 -320 -32 -6 -58 -13 -58 -16 0
-3 26 -10 58 -16 169 -33 270 -139 304 -321 l13 -68 6 45 c25 173 113 286 256
330 36 11 76 20 89 20 41 0 26 17 -20 23 -188 26 -297 150 -329 372 -1 11 -8
-11 -15 -49z"/>
<path d="M4197 6368 c-158 -157 -259 -336 -315 -557 -23 -93 -26 -125 -25
-266 0 -145 3 -171 30 -275 56 -211 153 -381 303 -530 388 -389 989 -448 1447
-144 82 54 273 232 273 254 0 5 -24 -5 -52 -24 -334 -213 -774 -234 -1128 -56
-214 108 -406 301 -513 515 -41 83 -83 214 -102 319 -23 126 -16 342 14 457
30 114 76 227 130 318 27 45 45 81 41 81 -5 0 -51 -42 -103 -92z"/>
<path d="M3013 4291 c-107 -37 -195 -125 -233 -235 -17 -48 -20 -82 -20 -250
0 -107 -3 -201 -6 -210 -5 -14 -32 -16 -200 -16 l-194 0 0 185 c0 138 4 194
14 220 15 35 42 55 75 55 11 0 23 5 26 10 4 7 -85 10 -259 10 -171 0 -266 -4
-266 -10 0 -5 12 -10 26 -10 15 0 38 -12 55 -30 l30 -29 -3 -503 -3 -503 -24
-53 c-25 -55 -72 -103 -127 -130 -19 -8 -34 -19 -34 -23 0 -15 78 -33 145 -33
155 0 259 71 318 217 19 46 22 79 27 302 l5 250 195 0 195 0 0 -195 c0 -225
-4 -240 -77 -262 -41 -12 -35 -13 95 -16 191 -4 405 2 387 10 -8 3 -27 9 -42
12 -59 13 -59 18 -56 554 l3 487 28 56 c27 55 66 92 130 120 35 16 34 25 -4
33 -58 11 -154 6 -206 -13z"/>
<path d="M5468 3594 c4 -545 7 -520 -70 -547 -40 -14 -26 -15 232 -16 256 0
272 1 228 15 -79 24 -79 24 -76 321 l3 259 345 -307 c190 -170 347 -308 350
-308 3 -1 4 219 2 489 l-3 490 25 25 c16 16 36 25 56 25 16 0 30 5 30 10 0 6
-97 10 -271 10 -177 0 -268 -3 -264 -10 3 -5 19 -10 34 -10 16 0 40 -11 55
-25 l26 -24 0 -266 0 -267 -43 39 c-24 21 -180 160 -346 308 -167 149 -306
271 -309 273 -4 1 -6 -217 -4 -484z"/>
<path d="M7165 4074 c-320 -52 -489 -232 -489 -524 -1 -165 41 -277 139 -376
117 -119 279 -170 504 -161 199 7 326 53 430 156 102 99 145 213 144 381 -2
262 -138 436 -396 506 -53 15 -277 26 -332 18z m220 -93 c22 -10 54 -34 72
-52 138 -146 152 -564 23 -742 -63 -88 -162 -122 -264 -93 -148 43 -226 225
-213 496 10 209 74 345 187 394 49 21 146 20 195 -3z"/>
<path d="M8251 4064 c-67 -18 -109 -43 -154 -93 -102 -113 -84 -328 34 -422
21 -16 107 -62 191 -101 238 -111 269 -135 283 -209 9 -50 -21 -98 -79 -128
-55 -28 -163 -34 -236 -13 -103 30 -192 132 -206 235 -4 26 -10 47 -14 47 -18
0 -53 -109 -58 -176 -5 -85 4 -107 59 -135 154 -78 428 -80 582 -3 121 61 177
152 177 292 0 92 -29 164 -86 211 -19 15 -125 70 -235 121 -216 101 -249 125
-249 185 0 45 46 98 98 113 22 7 70 12 108 12 121 0 203 -55 220 -147 10 -52
20 -30 33 69 6 51 14 102 16 114 4 19 -2 21 -148 32 -193 15 -268 14 -336 -4z"/>
<path d="M3150 4050 c0 -5 11 -10 25 -10 38 0 87 -24 116 -56 14 -16 87 -129
162 -252 l137 -223 0 -202 c0 -230 -2 -238 -73 -259 -40 -12 -35 -13 90 -16
72 -1 194 -1 270 0 130 3 135 4 96 16 -71 21 -73 29 -73 258 l0 202 145 228
c80 126 156 239 168 252 31 34 78 52 135 52 40 0 54 -5 76 -26 l26 -27 0 -434
c0 -361 -2 -439 -15 -462 -15 -30 -33 -41 -65 -41 -10 0 -22 -4 -25 -10 -4 -7
86 -10 262 -9 252 1 265 1 225 16 -79 28 -77 12 -80 500 l-3 433 50 0 c125 0
183 -67 184 -211 1 -59 -4 -85 -22 -123 -25 -52 -83 -101 -132 -111 -16 -4
-29 -11 -29 -16 0 -6 30 -24 66 -41 95 -44 176 -44 267 0 78 39 129 94 154
166 23 67 23 168 0 228 -34 87 -139 157 -267 177 -86 14 -1030 15 -1030 1 0
-5 8 -10 18 -10 27 0 54 -34 50 -62 -3 -25 -199 -377 -209 -378 -12 0 -209
365 -209 387 0 23 29 53 53 53 9 0 19 5 22 10 4 7 -92 10 -279 10 -184 0 -286
-4 -286 -10z"/>
</g>
</svg>
