<?xml version="1.0" standalone="no"?>
<svg xmlns:xlink="http://www.w3.org/1999/xlink" id="wave" style="transform:rotate(0deg); transition: 0.3s" viewBox="0 0 1440 490" version="1.1" xmlns="http://www.w3.org/2000/svg"><defs><linearGradient id="sw-gradient-0" x1="0" x2="0" y1="1" y2="0"><stop stop-color="rgba(243, 106, 62, 1)" offset="0%"/><stop stop-color="rgba(255, 179, 11, 1)" offset="100%"/></linearGradient></defs><path style="transform:translate(0, 0px); opacity:1" fill="url(#sw-gradient-0)" d="M0,49L48,89.8C96,131,192,212,288,277.7C384,343,480,392,576,383.8C672,376,768,310,864,236.8C960,163,1056,82,1152,65.3C1248,49,1344,98,1440,171.5C1536,245,1632,343,1728,334.8C1824,327,1920,212,2016,171.5C2112,131,2208,163,2304,155.2C2400,147,2496,98,2592,106.2C2688,114,2784,180,2880,220.5C2976,261,3072,278,3168,261.3C3264,245,3360,196,3456,163.3C3552,131,3648,114,3744,122.5C3840,131,3936,163,4032,163.3C4128,163,4224,131,4320,122.5C4416,114,4512,131,4608,147C4704,163,4800,180,4896,163.3C4992,147,5088,98,5184,114.3C5280,131,5376,212,5472,212.3C5568,212,5664,131,5760,130.7C5856,131,5952,212,6048,228.7C6144,245,6240,196,6336,171.5C6432,147,6528,147,6624,171.5C6720,196,6816,245,6864,269.5L6912,294L6912,490L6864,490C6816,490,6720,490,6624,490C6528,490,6432,490,6336,490C6240,490,6144,490,6048,490C5952,490,5856,490,5760,490C5664,490,5568,490,5472,490C5376,490,5280,490,5184,490C5088,490,4992,490,4896,490C4800,490,4704,490,4608,490C4512,490,4416,490,4320,490C4224,490,4128,490,4032,490C3936,490,3840,490,3744,490C3648,490,3552,490,3456,490C3360,490,3264,490,3168,490C3072,490,2976,490,2880,490C2784,490,2688,490,2592,490C2496,490,2400,490,2304,490C2208,490,2112,490,2016,490C1920,490,1824,490,1728,490C1632,490,1536,490,1440,490C1344,490,1248,490,1152,490C1056,490,960,490,864,490C768,490,672,490,576,490C480,490,384,490,288,490C192,490,96,490,48,490L0,490Z"/></svg>